<svg width="440" height="271" viewBox="0 0 440 271" fill="none" xmlns="http://www.w3.org/2000/svg">
<path d="M42.2648 82.8373C38.1177 88.1691 32.5173 90.8349 25.4635 90.8349C18.5647 90.8349 13.3325 88.8307 9.76682 84.8221C6.23991 80.7746 4.47646 74.9758 4.47646 67.4257V26.5033H24.0682V67.5424C24.0682 72.9521 26.6844 75.6569 31.9166 75.6569C36.4124 75.6569 39.6099 74.0418 41.509 70.8116V26.5033H61.217V89.6674H42.8461L42.2648 82.8373Z" fill="black"/>
<path d="M81.6599 26.5033L82.2994 33.9172C86.6402 28.1962 92.6282 25.3357 100.263 25.3357C106.813 25.3357 111.697 27.3011 114.914 31.2318C118.169 35.1625 119.855 41.0781 119.971 48.9785V89.6674H100.322V49.7958C100.322 46.6045 99.6821 44.2694 98.4031 42.7905C97.1241 41.2727 94.7986 40.5138 91.4268 40.5138C87.5898 40.5138 84.7411 42.0316 82.8808 45.0672V89.6674H63.289V26.5033H81.6599Z" fill="black"/>
<path d="M120.067 57.6183C120.067 47.6163 122.218 39.7354 126.52 33.9755C130.822 28.2157 136.829 25.3357 144.542 25.3357C150.162 25.3357 154.89 27.554 158.727 31.9907V0H178.377V89.6674H160.762L159.774 82.8956C155.743 88.1885 150.627 90.8349 144.426 90.8349C136.946 90.8349 131.016 87.955 126.636 82.1951C122.257 76.4352 120.067 68.243 120.067 57.6183ZM139.659 58.8442C139.659 70.0527 142.914 75.6569 149.425 75.6569C153.766 75.6569 156.867 73.8277 158.727 70.1694V46.118C156.944 42.3819 153.882 40.5138 149.542 40.5138C143.496 40.5138 140.221 45.4175 139.717 55.2248L139.659 58.8442Z" fill="black"/>
<path d="M211.61 90.8349C201.959 90.8349 194.15 87.955 188.181 82.1951C182.212 76.3963 179.228 68.8657 179.228 59.6031V57.9686C179.228 51.5082 180.41 45.8067 182.774 40.8641C185.177 35.9214 188.666 32.1075 193.239 29.4221C197.812 26.6978 203.238 25.3357 209.517 25.3357C218.354 25.3357 225.33 28.0989 230.446 33.6253C235.562 39.1127 238.12 46.7796 238.12 56.6259V64.2733H199.169C199.866 67.8149 201.397 70.5975 203.761 72.6213C206.126 74.645 209.188 75.6569 212.947 75.6569C219.148 75.6569 223.993 73.4775 227.481 69.1186L236.434 79.7433C233.992 83.1292 230.523 85.834 226.028 87.8577C221.57 89.8425 216.765 90.8349 211.61 90.8349ZM209.401 40.5138C203.665 40.5138 200.254 44.3278 199.169 51.9557H218.935V50.4379C219.012 47.2855 218.218 44.8532 216.551 43.1408C214.885 41.3894 212.501 40.5138 209.401 40.5138Z" fill="black"/>
<path d="M275.771 44.3083L269.318 43.8413C263.155 43.8413 259.202 45.7872 257.458 49.679V89.6674H237.866V26.5033H256.237L256.877 34.6177C260.171 28.4297 264.764 25.3357 270.655 25.3357C272.748 25.3357 274.569 25.5692 276.12 26.0362L275.771 44.3083Z" fill="black"/>
<path d="M27.6145 100.882V116.586H37.9627V130.246H27.6145V159.143C27.6145 161.517 28.0409 163.171 28.8935 164.105C29.7462 165.039 31.4321 165.506 33.9513 165.506C35.8892 165.506 37.517 165.389 38.8347 165.156V179.225C35.3078 180.353 31.6259 180.917 27.7889 180.917C21.0452 180.917 16.0649 179.322 12.848 176.131C9.63117 172.939 8.02275 168.094 8.02275 161.595V130.246H0V116.586H8.02275V100.882H27.6145Z" fill="black"/>
<path d="M56.5452 123.358C60.731 118.065 66.0795 115.418 72.5907 115.418C79.5283 115.418 84.7605 117.481 88.2874 121.606C91.8143 125.732 93.6165 131.822 93.6941 139.878V179.75H74.0441V140.345C74.0441 136.998 73.3659 134.547 72.0094 132.99C70.6529 131.394 68.3468 130.596 65.0912 130.596C61.0605 130.596 58.2118 131.881 56.5452 134.449V179.75H36.9535V90.0825H56.5452V123.358Z" fill="black"/>
<path d="M126.694 180.917C117.044 180.917 109.234 178.038 103.266 172.278C97.2969 166.479 94.3126 158.948 94.3126 149.686V148.051C94.3126 141.591 95.4947 135.889 97.8589 130.947C100.262 126.004 103.75 122.19 108.323 119.505C112.897 116.78 118.323 115.418 124.601 115.418C133.438 115.418 140.414 118.181 145.53 123.708C150.646 129.195 153.204 136.862 153.204 146.708V154.356H114.253C114.951 157.897 116.482 160.68 118.846 162.704C121.21 164.728 124.272 165.739 128.031 165.739C134.233 165.739 139.077 163.56 142.565 159.201L151.518 169.826C149.077 173.212 145.608 175.916 141.112 177.94C136.655 179.925 131.849 180.917 126.694 180.917ZM124.485 130.596C118.749 130.596 115.338 134.41 114.253 142.038H134.019V140.52C134.097 137.368 133.302 134.936 131.636 133.223C129.969 131.472 127.586 130.596 124.485 130.596Z" fill="black"/>
<path d="M25.4635 269.832H5.81358V206.668H25.4635V269.832ZM4.65087 190.381C4.65087 187.579 5.65856 185.283 7.67393 183.493C9.68931 181.702 12.3054 180.807 15.5223 180.807C18.7391 180.807 21.3552 181.702 23.3706 183.493C25.386 185.283 26.3937 187.579 26.3937 190.381C26.3937 193.183 25.386 195.479 23.3706 197.27C21.3552 199.06 18.7391 199.955 15.5223 199.955C12.3054 199.955 9.68931 199.06 7.67393 197.27C5.65856 195.479 4.65087 193.183 4.65087 190.381Z" fill="black"/>
<path d="M47.2435 206.668L47.883 214.082C52.2238 208.361 58.2118 205.501 65.847 205.501C72.397 205.501 77.2804 207.466 80.4972 211.397C83.7528 215.328 85.4388 221.243 85.555 229.144V269.832H65.9051V229.961C65.9051 226.77 65.2656 224.434 63.9866 222.956C62.7076 221.438 60.3822 220.679 57.0103 220.679C53.1734 220.679 50.3247 222.197 48.4644 225.232V269.832H28.8726V206.668H47.2435Z" fill="black"/>
<path d="M131.927 194.526C128.593 194.253 125.783 194.117 123.497 194.117C115.9 194.117 112.102 197.094 112.102 203.049V206.668H124.369V220.329H112.102V269.832H92.4523V220.329H83.3249V206.668H92.4523V202.582C92.491 195.032 94.9134 189.214 99.7193 185.127C104.564 181.002 111.482 178.939 120.474 178.939C126.869 178.939 137.256 179.348 151.635 180.165V269.832H131.927V194.526Z" fill="black"/>
<path d="M192.716 263.002C188.569 268.334 182.968 271 175.914 271C169.016 271 163.783 268.996 160.218 264.987C156.691 260.94 154.927 255.141 154.927 247.591V206.668H174.519V247.707C174.519 253.117 177.135 255.822 182.368 255.822C186.863 255.822 190.061 254.207 191.96 250.977V206.668H211.668V269.832H193.297L192.716 263.002Z" fill="black"/>
<path d="M244.552 271C234.901 271 227.092 268.12 221.123 262.36C215.155 256.561 212.17 249.031 212.17 239.768V238.134C212.17 231.673 213.352 225.972 215.717 221.029C218.12 216.087 221.608 212.273 226.181 209.587C230.754 206.863 236.18 205.501 242.459 205.501C251.296 205.501 258.272 208.264 263.388 213.79C268.504 219.278 271.062 226.945 271.062 236.791V244.438H232.111C232.808 247.98 234.339 250.763 236.704 252.786C239.068 254.81 242.13 255.822 245.889 255.822C252.09 255.822 256.935 253.643 260.423 249.284L269.376 259.908C266.934 263.294 263.465 265.999 258.97 268.023C254.513 270.008 249.707 271 244.552 271ZM242.343 220.679C236.607 220.679 233.196 224.493 232.111 232.121H251.877V230.603C251.955 227.451 251.16 225.018 249.493 223.306C247.827 221.555 245.443 220.679 242.343 220.679Z" fill="black"/>
<path d="M288.656 206.668L289.296 214.082C293.636 208.361 299.624 205.501 307.26 205.501C313.81 205.501 318.693 207.466 321.91 211.397C325.165 215.328 326.851 221.243 326.968 229.144V269.832H307.318V229.961C307.318 226.77 306.678 224.434 305.399 222.956C304.12 221.438 301.795 220.679 298.423 220.679C294.586 220.679 291.737 222.197 289.877 225.232V269.832H270.285V206.668H288.656Z" fill="black"/>
<path d="M356.131 255.822C358.883 255.822 361.014 255.082 362.526 253.604C364.037 252.086 364.774 249.984 364.735 247.299H383.106C383.106 254.226 380.625 259.908 375.665 264.345C370.742 268.782 364.386 271 356.596 271C347.449 271 340.24 268.12 334.969 262.36C329.698 256.6 327.063 248.622 327.063 238.426V237.608C327.063 231.226 328.226 225.602 330.551 220.737C332.915 215.834 336.307 212.078 340.725 209.47C345.143 206.824 350.375 205.501 356.422 205.501C364.599 205.501 371.091 207.777 375.897 212.331C380.703 216.884 383.106 223.053 383.106 230.836H364.735C364.735 227.567 363.94 225.057 362.351 223.306C360.762 221.555 358.631 220.679 355.956 220.679C350.879 220.679 347.914 223.929 347.062 230.428C346.79 232.49 346.655 235.332 346.655 238.951C346.655 245.295 347.411 249.692 348.922 252.144C350.434 254.596 352.837 255.822 356.131 255.822Z" fill="black"/>
<path d="M413.49 271C403.84 271 396.03 268.12 390.061 262.36C384.093 256.561 381.108 249.031 381.108 239.768V238.134C381.108 231.673 382.29 225.972 384.655 221.029C387.058 216.087 390.546 212.273 395.119 209.587C399.693 206.863 405.118 205.501 411.397 205.501C420.234 205.501 427.21 208.264 432.326 213.79C437.442 219.278 440 226.945 440 236.791V244.438H401.049C401.747 247.98 403.278 250.763 405.642 252.786C408.006 254.81 411.068 255.822 414.827 255.822C421.028 255.822 425.873 253.643 429.361 249.284L438.314 259.908C435.872 263.294 432.404 265.999 427.908 268.023C423.451 270.008 418.645 271 413.49 271ZM411.281 220.679C405.545 220.679 402.134 224.493 401.049 232.121H420.815V230.603C420.893 227.451 420.098 225.018 418.432 223.306C416.765 221.555 414.381 220.679 411.281 220.679Z" fill="black"/>
</svg>
